<?xml version="1.0" encoding="UTF-8" standalone="no"?>
<svg width="38px" height="38px" viewBox="0 0 38 38" version="1.1" xmlns="http://www.w3.org/2000/svg" xmlns:xlink="http://www.w3.org/1999/xlink">
    <!-- Generator: Sketch 3.7.2 (28276) - http://www.bohemiancoding.com/sketch -->
    <title>birthday_cake</title>
    <desc>Created with Sketch.</desc>
    <defs></defs>
    <g id="Main" stroke="none" stroke-width="1" fill="none" fill-rule="evenodd">
        <g id="Main-1280" transform="translate(-762.000000, -2325.000000)" stroke-width="2" stroke="#FFFFFF">
            <g id="Group-7" transform="translate(112.000000, 2137.000000)">
                <g id="birthday_cake" transform="translate(651.000000, 189.000000)">
                    <g id="Layer_1">
                        <path d="M36,33 C36,35.475 34.125,36 31.875,36 L4.125,36 C1.875,36 0,35.475 0,33 L36,33 L36,33 Z" id="Shape"></path>
                        <path d="M33,32.925 L33,25.5 C33,23.025 30.975,21 28.5,21 L7.5,21 C5.025,21 3,23.025 3,25.5 L3,32.925" id="Shape"></path>
                        <path d="M21,6 C21,4.35 18,0.525 18,0.525 C18,0.525 15,4.35 15,6 C15,7.65 16.35,9 18,9 C19.65,9 21,7.65 21,6 L21,6 Z" id="Shape"></path>
                        <path d="M21,21 L21,12.75 C21,11.925 20.325,11.25 19.5,11.25 L16.5,11.25 C15.675,11.25 15,11.925 15,12.75 L15,21" id="Shape"></path>
                        <path d="M18,10.5 L18,6.75" id="Shape"></path>
                        <path d="M33,25.5 C32.325,26.4 30.975,27.75 28.2,27.75 C25.425,27.75 24.075,26.4 23.4,25.5 C22.65,26.4 21.075,27.75 18,27.75 C14.85,27.75 13.35,26.4 12.6,25.5 C11.925,26.4 10.575,27.75 7.8,27.75 C5.1,27.75 3.675,26.4 3,25.5" id="Shape"></path>
                    </g>
                </g>
            </g>
        </g>
    </g>
</svg>