<?xml version="1.0" encoding="UTF-8" standalone="no"?>
<svg width="37px" height="39px" viewBox="0 0 37 39" version="1.1" xmlns="http://www.w3.org/2000/svg" xmlns:xlink="http://www.w3.org/1999/xlink">
    <!-- Generator: Sketch 3.7.2 (28276) - http://www.bohemiancoding.com/sketch -->
    <title>cocktail</title>
    <desc>Created with Sketch.</desc>
    <defs></defs>
    <g id="Main" stroke="none" stroke-width="1" fill="none" fill-rule="evenodd">
        <g id="Main-1280" transform="translate(-479.000000, -2135.000000)">
            <g id="Group-7" transform="translate(112.000000, 2137.000000)">
                <g id="cocktail" transform="translate(369.000000, 0.000000)">
                    <g id="Layer_1">
                        <path d="M28.6697674,12 L11.5743256,12" id="Shape" stroke="#FFFFFF" stroke-width="2"></path>
                        <path d="M20.0930233,32.03025 L20.0930233,23.30775" id="Shape" stroke="#FFFFFF" stroke-width="2"></path>
                        <path d="M29.0232558,36 L11.1627907,36 C11.1627907,33.8025 20.0930233,32.25 20.0930233,32.25 C20.0930233,32.25 29.0232558,33.8025 29.0232558,36 L29.0232558,36 Z" id="Shape" stroke="#FFFFFF" stroke-width="2"></path>
                        <polyline id="Shape" stroke="#FFFFFF" stroke-width="2" points="8.18604651 8.25 20.0930233 22.8465 32 8.25 9.58213953 8.25"></polyline>
                        <path d="M13.1646512,14.799 C11.7849302,15.86625 10.0591628,16.5 8.18604651,16.5 C3.66511628,16.5 0,12.80625 0,8.25 C0,3.69375 3.66511628,0 8.18604651,0 C12.5946047,0 16.1890233,3.51225 16.3653953,7.911" id="Shape" stroke="#FFFFFF" stroke-width="2.2"></path>
                        <path d="M8.23962791,9.99775 C8.23962791,9.99775 7.12930233,14.55925 5.83144186,13.65625 C4.5335814,12.7525 7.75813953,9.71725 7.75813953,9.71725 C7.75813953,9.71725 3.14195349,10.18375 3.56093023,8.53975 C3.97990698,6.89575 7.87125581,9.169 7.87125581,9.169 C7.87125581,9.169 6.03237209,4.96075 7.68669767,4.78225 C9.34102326,4.60375 8.42493023,9.109 8.42493023,9.109 C8.42493023,9.109 11.7276279,6.06475 12.5060465,7.576 C13.2852093,9.0865 8.65190698,9.6205 8.65190698,9.6205 L8.23962791,9.99775 L8.23962791,9.99775 Z" id="Shape" fill="#CACACA"></path>
                    </g>
                </g>
            </g>
        </g>
    </g>
</svg>