<?xml version="1.0" encoding="UTF-8" standalone="no"?>
<svg width="38px" height="37px" viewBox="0 0 38 37" version="1.1" xmlns="http://www.w3.org/2000/svg" xmlns:xlink="http://www.w3.org/1999/xlink">
    <!-- Generator: Sketch 3.7.2 (28276) - http://www.bohemiancoding.com/sketch -->
    <title>controller</title>
    <desc>Created with Sketch.</desc>
    <defs></defs>
    <g id="Main" stroke="none" stroke-width="1" fill="none" fill-rule="evenodd">
        <g id="Main-1280" transform="translate(-762.000000, -2137.000000)">
            <g id="Group-7" transform="translate(112.000000, 2137.000000)">
                <g id="controller" transform="translate(651.000000, 0.000000)">
                    <g id="Layer_1">
                        <path d="M32.25,0 C32.25,6.75 18.039,3.75 18.039,15" id="Shape" stroke="#FFFFFF" stroke-width="2"></path>
                        <path d="M18,15 C14.1315,15 13.6185,12.75 9.75,12.75 C5.88225,12.75 0,22.5 0,30 C0,33 1.5,35.25 3.75,35.25 C10.5,35.25 13.5,28.5 18,28.5 C22.5,28.5 25.5,35.25 32.25,35.25 C34.5,35.25 36,33 36,30 C36,22.5 30.11775,12.75 26.25,12.75 C22.3815,12.75 21.8685,15 18,15 L18,15 Z" id="Shape" stroke="#FFFFFF" stroke-width="2"></path>
                        <polygon id="Shape" fill="#FFFFFF" points="12.75 24 10.5 24 10.5 26.25 8.25 26.25 8.25 24 6 24 6 21.75 8.25 21.75 8.25 19.5 10.5 19.5 10.5 21.75 12.75 21.75"></polygon>
                        <circle id="Oval" fill="#FFFFFF" cx="27" cy="20.25" r="1.5"></circle>
                        <circle id="Oval" fill="#FFFFFF" cx="27" cy="26.25" r="1.5"></circle>
                        <circle id="Oval" fill="#FFFFFF" cx="30" cy="23.25" r="1.5"></circle>
                        <circle id="Oval" fill="#FFFFFF" cx="24" cy="23.25" r="1.5"></circle>
                    </g>
                </g>
            </g>
        </g>
    </g>
</svg>