<?xml version="1.0" encoding="UTF-8" standalone="no"?>
<svg width="38px" height="30px" viewBox="0 0 38 30" version="1.1" xmlns="http://www.w3.org/2000/svg" xmlns:xlink="http://www.w3.org/1999/xlink">
    <!-- Generator: Sketch 3.7.2 (28276) - http://www.bohemiancoding.com/sketch -->
    <title>living_room</title>
    <desc>Created with Sketch.</desc>
    <defs></defs>
    <g id="Main" stroke="none" stroke-width="1" fill="none" fill-rule="evenodd">
        <g id="Main-1280" transform="translate(-1046.000000, -2140.000000)" stroke-width="2" stroke="#FFFFFF">
            <g id="Group-7" transform="translate(112.000000, 2137.000000)">
                <g id="living_room" transform="translate(935.000000, 4.000000)">
                    <g id="Layer_1">
                        <path d="M36,12.375 C36,10.0965 34.1535,8.25 31.875,8.25 C29.5965,8.25 27.75,10.0965 27.75,12.375 C27.75,14.25 27,17.25 24,17.25 L12,17.25 C9,17.25 8.25,14.25 8.25,12.375 C8.25,10.0965 6.4035,8.25 4.125,8.25 C1.8465,8.25 0,10.0965 0,12.375 C0,14.53575 1.662,16.305 3.777,16.48275 C3.75975,16.6365 3.75,16.79175 3.75,16.95 L3.75,21.225 C3.75,23.586 5.664,25.5 8.025,25.5 L27.975,25.5 C30.336,25.5 32.25,23.586 32.25,21.225 L32.25,16.95 C32.25,16.79175 32.24025,16.6365 32.223,16.482 C34.338,16.305 36,14.53575 36,12.375 L36,12.375 Z" id="Shape"></path>
                        <polyline id="Shape" points="29.25 25.3065 29.25 27.75 24.75 27.75 24.75 25.5"></polyline>
                        <polyline id="Shape" points="6.75 25.3065 6.75 27.75 11.25 27.75 11.25 25.5"></polyline>
                        <path d="M32.25,8.268 L32.25,7.13775 C32.25,2.8455 29.36475,0 25.125,0 L10.875,0 C6.63525,0 3.75,2.8455 3.75,7.13775 L3.75,8.25" id="Shape"></path>
                    </g>
                </g>
            </g>
        </g>
    </g>
</svg>
