<?xml version="1.0" encoding="UTF-8" standalone="no"?>
<svg width="16px" height="17px" viewBox="0 0 16 17" version="1.1" xmlns="http://www.w3.org/2000/svg" xmlns:xlink="http://www.w3.org/1999/xlink">
    <!-- Generator: Sketch 3.7.2 (28276) - http://www.bohemiancoding.com/sketch -->
    <title>phone</title>
    <desc>Created with Sketch.</desc>
    <defs></defs>
    <g id="Main" stroke="none" stroke-width="1" fill="none" fill-rule="evenodd">
        <g id="Main-1280" transform="translate(-282.000000, -16.000000)" stroke="#FFFFFF">
            <g id="phone" transform="translate(282.000000, 17.000000)">
                <g id="Layer_1">
                    <path d="M6.52307692,2.76923077 L4,0.184615385 C3.69230769,-0.0615384615 3.26153846,-0.0615384615 2.95384615,0.184615385 L1.04615385,2.15384615 C0.615384615,2.52307692 0.492307692,3.13846154 0.676923077,3.63076923 C1.16923077,5.04615385 2.46153846,7.87692308 4.98461538,10.4 C7.50769231,12.9230769 10.3384615,14.1538462 11.7538462,14.7076923 C12.3076923,14.8923077 12.8615385,14.7692308 13.2923077,14.4 L15.2,12.4923077 C15.5076923,12.1846154 15.5076923,11.7538462 15.2,11.4461538 L12.6769231,8.92307692 C12.3692308,8.61538462 11.9384615,8.61538462 11.6307692,8.92307692 L10.0923077,10.4615385 C10.0923077,10.4615385 8.36923077,9.72307692 7.01538462,8.43076923 C5.66153846,7.13846154 4.98461538,5.35384615 4.98461538,5.35384615 L6.52307692,3.81538462 C6.83076923,3.50769231 6.83076923,3.01538462 6.52307692,2.76923077 L6.52307692,2.76923077 Z" id="Shape"></path>
                </g>
            </g>
        </g>
    </g>
</svg>