<?xml version="1.0" encoding="UTF-8" standalone="no"?>
<svg width="39px" height="38px" viewBox="0 0 39 38" version="1.1" xmlns="http://www.w3.org/2000/svg" xmlns:xlink="http://www.w3.org/1999/xlink">
    <!-- Generator: Sketch 3.7.2 (28276) - http://www.bohemiancoding.com/sketch -->
    <title>saxophone</title>
    <desc>Created with Sketch.</desc>
    <defs></defs>
    <g id="Main" stroke="none" stroke-width="1" fill="none" fill-rule="evenodd">
        <g id="Main-1280" transform="translate(-1045.000000, -2325.000000)">
            <g id="Group-7" transform="translate(112.000000, 2137.000000)">
                <g id="saxophone" transform="translate(935.000000, 189.000000)">
                    <g id="Layer_1">
                        <path d="M3.75,8.25 C6.4455,8.25 7.13625,3.27525 9.19125,0.9915 C10.965,-0.9795 13.42425,0.204 14.56275,2.7525 C15.70125,5.301 25.93725,27.87525 25.93725,27.87525 C26.45025,28.818 27.417,30.00075 28.4865,29.40375 C29.556,28.80675 29.5215,27.56925 28.64175,26.202 C26.643,23.10075 25.95375,21.07125 25.5615,19.656 C24.86925,17.1225 25.9845,14.9295 24.1245,13.185 C22.368,11.541 23.493,11.1465 24.63,11.5245 C25.767,11.91 33.132,14.19675 34.68225,14.5995 C36.17475,14.988 36.28875,15.906 34.38075,16.4265 C33.37875,16.70175 32.91225,17.41875 32.70375,19.54575 C32.5035,21.6705 35.25,26.1345 35.25,28.5 C35.253,31.6845 34.57875,32.505 33.024,33.86475 C31.461,35.2335 30.78225,35.58225 28.72425,35.82 C21.39225,36.675 18.936,27.58275 18.936,27.58275 C18.936,27.58275 11.20575,7.23375 10.59375,5.625 C9.42375,2.54925 9.321,10.5 3.75,10.5 L3.75,8.25 Z M3.75,8.25 C3.75,8.25 2.03925,8.41425 1.0965,7.68375 L0.054,8.98425 C0.054,8.98425 0.6465,10.5105 3.74475,10.5105 L3.75,8.25 L3.75,8.25 Z" id="Shape" stroke="#FFFFFF" stroke-width="2"></path>
                        <path d="M30.20475,21.20625 C30.76875,20.71575 30.82425,19.8555 30.333,19.293 C29.8365,18.729 28.98075,18.67425 28.41825,19.16475 C27.85425,19.659 27.7965,20.5155 28.287,21.078 C28.7805,21.642 29.64225,21.699 30.20475,21.20625 L30.20475,21.20625 Z" id="Shape" fill="#FFFFFF"></path>
                        <path d="M32.226,23.65875 C31.7295,23.09625 30.8685,23.0385 30.30975,23.532 C29.7435,24.02475 29.6895,24.88425 30.18,25.4475 C30.6705,26.00625 31.52775,26.067 32.09475,25.57275 C32.6565,25.083 32.718,24.22275 32.226,23.65875 L32.226,23.65875 Z" id="Shape" fill="#FFFFFF"></path>
                        <path d="M20.94675,17.13975 C20.5965,17.1825 20.24775,17.2755 19.9365,17.42475 C18.94275,17.901 18.8505,18.70875 19.21875,19.47375 C19.5825,20.2395 20.2665,20.676 21.26325,20.19675 C21.5565,20.0565 21.846,19.84425 22.10175,19.605 L22.1085,19.608 C22.11375,19.6035 23.32275,18.5145 22.81875,17.6865 C22.3935,16.9875 20.94675,17.13975 20.94675,17.13975 L20.94675,17.13975 Z" id="Shape" fill="#FFFFFF"></path>
                        <path d="M18.876,12.6375 C18.52575,12.68025 18.177,12.77325 17.86575,12.9225 C16.872,13.39875 16.77975,14.2065 17.148,14.9715 C17.51175,15.73725 18.19575,16.17375 19.1925,15.6945 C19.48575,15.55425 19.77525,15.342 20.031,15.10275 L20.03775,15.10575 C20.043,15.10125 21.252,14.01225 20.748,13.18425 C20.32275,12.48525 18.876,12.6375 18.876,12.6375 L18.876,12.6375 Z" id="Shape" fill="#FFFFFF"></path>
                        <path d="M16.8285,8.14125 C16.47825,8.184 16.1295,8.277 15.81825,8.42625 C14.8245,8.9025 14.73225,9.71025 15.1005,10.47525 C15.46425,11.241 16.14825,11.6775 17.145,11.19825 C17.43825,11.058 17.72775,10.84575 17.9835,10.6065 L17.99025,10.6095 C17.9955,10.605 19.2045,9.516 18.7005,8.688 C18.27525,7.989 16.8285,8.14125 16.8285,8.14125 L16.8285,8.14125 Z" id="Shape" fill="#FFFFFF"></path>
                    </g>
                </g>
            </g>
        </g>
    </g>
</svg>