<?xml version="1.0" encoding="UTF-8" standalone="no"?>
<svg width="36px" height="36px" viewBox="0 0 36 36" version="1.1" xmlns="http://www.w3.org/2000/svg" xmlns:xlink="http://www.w3.org/1999/xlink">
    <!-- Generator: Sketch 3.7.2 (28276) - http://www.bohemiancoding.com/sketch -->
    <title>sun</title>
    <desc>Created with Sketch.</desc>
    <defs></defs>
    <g id="Main" stroke="none" stroke-width="1" fill="none" fill-rule="evenodd">
        <g id="Main-1280" transform="translate(-479.000000, -2326.000000)" stroke-width="2">
            <g id="Group-7" transform="translate(112.000000, 2137.000000)">
                <g id="sun" transform="translate(367.000000, 189.000000)">
                    <g id="Layer_1">
                        <g id="Group" transform="translate(9.900000, 9.900000)" stroke="#CACACA">
                            <path d="M8.1,0 C12.5667,0 16.2,3.6342 16.2,8.1 C16.2,12.5667 12.5667,16.2 8.1,16.2 C3.6342,16.2 0,12.5667 0,8.1 C0,3.6342 3.6342,0 8.1,0" id="Shape"></path>
                        </g>
                        <path d="M18,36 L18,30.6" id="Shape" stroke="#FFFFFF"></path>
                        <path d="M18,5.4 L18,0" id="Shape" stroke="#FFFFFF"></path>
                        <path d="M0,18 L5.4,18" id="Shape" stroke="#FFFFFF"></path>
                        <path d="M30.6,18 L36,18" id="Shape" stroke="#FFFFFF"></path>
                        <path d="M5.2722,30.7287 L9.0909,26.91" id="Shape" stroke="#FFFFFF"></path>
                        <path d="M26.9091,9.0918 L30.7287,5.2722" id="Shape" stroke="#FFFFFF"></path>
                        <path d="M5.2722,5.2722 L9.0909,9.0918" id="Shape" stroke="#FFFFFF"></path>
                        <path d="M26.9091,26.91 L30.7287,30.7287" id="Shape" stroke="#FFFFFF"></path>
                    </g>
                </g>
            </g>
        </g>
    </g>
</svg>