<?xml version="1.0" encoding="UTF-8" standalone="no"?>
<svg width="36px" height="26px" viewBox="0 0 36 26" version="1.1" xmlns="http://www.w3.org/2000/svg" xmlns:xlink="http://www.w3.org/1999/xlink">
    <!-- Generator: Sketch 3.7.2 (28276) - http://www.bohemiancoding.com/sketch -->
    <title>WiFi</title>
    <desc>Created with Sketch.</desc>
    <defs></defs>
    <g id="Main" stroke="none" stroke-width="1" fill="none" fill-rule="evenodd">
        <g id="Main-1280" transform="translate(-195.000000, -2142.000000)" fill="#FFFFFF">
            <g id="Group-7" transform="translate(112.000000, 2137.000000)">
                <g id="WiFi" transform="translate(83.000000, 5.000000)">
                    <g id="Layer_1">
                        <g id="Group">
                            <path d="M18,20.9418283 C16.776,20.9418283 15.6876923,21.4849197 14.9275385,22.3337618 L18,25.4317562 L21.0724615,22.3337618 C20.3123077,21.4849197 19.224,20.9418283 18,20.9418283 Z M2.20015385,9.50060942 C6.22246154,5.36669252 11.8163077,2.79224377 18,2.79224377 C24.1836923,2.79224377 29.7775385,5.36669252 33.7998462,9.50060942 L35.7576923,7.52649307 C31.2327692,2.88718006 24.9466154,0 18,0 C11.0533846,0 4.76723077,2.88718006 0.242307692,7.52649307 L2.20015385,9.50060942 Z M18,6.98060942 C12.9613846,6.98060942 8.406,9.0845651 5.13553846,12.4603878 L7.09338462,14.4345042 C9.86261538,11.5640776 13.7256923,9.77285319 18,9.77285319 C22.2743077,9.77285319 26.1373846,11.5640776 28.9066154,14.433108 L30.8644615,12.4589917 C27.594,9.0845651 23.0386154,6.98060942 18,6.98060942 Z M18,13.9612188 C14.8707692,13.9612188 12.0447692,15.2819501 10.0287692,17.3942825 L11.9852308,19.3670028 C13.5,17.7614626 15.6336923,16.7534626 18,16.7534626 C20.3663077,16.7534626 22.5,17.7614626 24.0133846,19.3670028 L25.9698462,17.3942825 C23.9552308,15.2819501 21.1292308,13.9612188 18,13.9612188 Z" id="Combined-Shape"></path>
                        </g>
                    </g>
                </g>
            </g>
        </g>
    </g>
</svg>