<?xml version="1.0" encoding="UTF-8" standalone="no"?>
<svg width="150px" height="17px" viewBox="0 0 150 17" version="1.1" xmlns="http://www.w3.org/2000/svg" xmlns:xlink="http://www.w3.org/1999/xlink">
    <!-- Generator: Sketch 3.7.2 (28276) - http://www.bohemiancoding.com/sketch -->
    <title>Logo</title>
    <desc>Created with Sketch.</desc>
    <defs></defs>
    <g id="Main" stroke="none" stroke-width="1" fill="none" fill-rule="evenodd">
        <g id="Main-1280" transform="translate(-77.000000, -26.000000)" fill="#FFFFFF">
            <g id="Logo" transform="translate(77.000000, 26.000000)">
                <path d="M123.943178,5.82021882 C124.336367,5.72448214 124.747169,5.67373326 125.169824,5.67373326 C128.023372,5.67373326 130.33663,7.98699092 130.33663,10.8405389 C130.33663,13.6940868 128.023372,16.0073445 125.169824,16.0073445 C122.318166,16.0073445 120.006083,13.6971498 120.003022,10.8462077 L119.974177,10.8443034 C119.974177,10.8443034 119.350285,6.28260301 121.978328,3.62959032 C124.606371,0.976577634 129.303269,1.54028878 129.303269,1.54028878 L129.303269,4.26725501 C129.303269,4.26725501 125.641397,4.0970844 123.943178,5.82021882 Z M125.169824,12.9072611 C126.311243,12.9072611 127.236547,11.981958 127.236547,10.8405389 C127.236547,9.69911968 126.311243,8.77381662 125.169824,8.77381662 C124.028405,8.77381662 123.103102,9.69911968 123.103102,10.8405389 C123.103102,11.981958 124.028405,12.9072611 125.169824,12.9072611 Z M135.483502,0.499519123 L138.583585,0.499519123 L134.442059,16.0415285 L131.341975,16.0415285 L135.483502,0.499519123 Z M143.80422,4.65723108 C142.498726,4.79267848 140.703356,5.63607276 140.703356,5.63607276 L139.695288,2.60116808 C139.695288,2.60116808 142.471468,1.52889797 144.810691,1.52889791 C147.149914,1.52889785 149.744188,2.60116802 149.744188,5.96730423 C149.744188,9.33344043 144.94181,12.8859542 144.94181,12.8859542 L150,12.8859542 L150,15.9866098 L139.680833,15.9866098 L139.680833,13.8469582 L145.17051,8.57978489 C145.17051,8.57978489 146.309857,7.3553146 145.864595,5.96730423 C145.644783,5.28208827 144.998939,4.53327676 143.80422,4.65723108 Z" id="Combined-Shape"></path>
                <path d="M101,5.02382891 L96.999575,5.02382891 L96.999575,1.00844805 L109.025762,1.00844805 L109.025762,5.02382891 L105.021721,5.02382891 L105.021721,16.0084481 L101,16.0084481 L101,5.02382891 Z M82.9778148,8.67987776 L87.9999998,1 L91.9999998,1 L87.0175124,8.67987776 L92,16.0084481 L88,16.0084481 L82.9778148,8.67987776 Z M78,1.00844805 L82.0217214,1.00844805 L82.0217212,16.0084481 L78,16.0084481 L78,1.00844805 Z M59,5.10592904 L63.0217214,1.00844805 L70.064806,1.00844805 L70.064806,4.65286391 L63.0217214,4.65286391 L63.0217214,7.02281611 L67.0666323,7.02281611 L67.0666323,10.5364327 L63.0217214,10.5364327 L63.0217214,12.0612473 L70.064806,12.0612473 L70.064806,16.0084481 L59,16.0084481 L59,5.10592904 Z M0,1.00844805 L14,1.00844805 L14,16.0084481 L10.1841776,16.0084481 L10.1841774,5.0203027 L4.02172136,5.0203027 L4.02172118,16.0084481 L0,16.0084481 L0,1.00844805 Z M21,1.00844805 L27.9987364,1.00844805 C27.9987364,1.00844805 32.9896154,1.00844805 32.9896154,7.05074542 C32.9896154,13.0930428 27.9987364,13.0413212 27.9987364,13.0413212 L25.0217214,13.0413212 L25.0217212,16.0084481 L21,16.0084481 L21,1.00844805 Z M25,5.00844805 L27.0366085,5.00844805 C27.0366085,5.00844805 28.9928136,5.00844805 28.9928136,7.00844805 C28.9928136,9.00844805 27.0366085,9.00844805 27.0366085,9.00844805 L25,9.00844805 L25,5.00844805 Z M45.5,16.0084481 C49.6421356,16.0084481 53,12.6505837 53,8.50844805 C53,4.36631243 49.6421356,1.00844805 45.5,1.00844805 C41.3578644,1.00844805 38,4.36631243 38,8.50844805 C38,12.6505837 41.3578644,16.0084481 45.5,16.0084481 Z M45.5,12.0084481 C47.4329966,12.0084481 49,10.4414447 49,8.50844805 C49,6.57545143 47.4329966,5.00844805 45.5,5.00844805 C43.5670034,5.00844805 42,6.57545143 42,8.50844805 C42,10.4414447 43.5670034,12.0084481 45.5,12.0084481 Z" id="Combined-Shape"></path>
            </g>
        </g>
    </g>
</svg>